<?xml version="1.0" encoding="utf-8"?>
<svg version="1.1" xmlns="http://www.w3.org/2000/svg">
  <symbol id="fb" viewBox="0 0 24 24">
    <path d="M9 8H6v4h3v12h5V12h3.6l.4-4h-4V6.3c0-1 .2-1.3 1-1.3h3V0h-3.8C10.6 0 9 1.6 9 4.6V8z"/>
  </symbol>
  <symbol id="vk" viewBox="0 0 24 24">
    <path d="M13.2 19c.6 0 .8-.4.8-1 0-1.8.7-3 2-1.5 1.6 1.5 2 2.5 3.7 2.5H23c.7 0 1-.3 1-.7 0-.8-1.4-2.4-2.6-3.5-1.7-1.5-1.8-1.6-.3-3.5C23 9 25.3 6 23 6h-3.8c-.8 0-1 .4-1 1-1 2.4-3 5.5-3.8 5-.7-.5-.4-2.4-.3-5.3 0-.7 0-1.2-1-1.5L11 5C9 5 7.4 6 8.3 6c1.6.4 1.4 3.8 1 5.3-.6 2.5-3-2-4-4.3C5 6.4 5 6 4 6H.8c-.5 0-.8.2-.8.5 0 .6 3 6.7 5.8 9.8 2.7 3 5.5 2.7 7.4 2.7z"/>
  </symbol>
  <symbol id="tw" viewBox="0 0 24 24">
    <path d="M24 4.6c-1 .3-1.8.6-2.8.7 1-.6 1.8-1.5 2-2.7-.8.6-2 1-3 1.2-1-1-2.2-1.6-3.6-1.6-3.2 0-5.5 3-4.8 6-4 0-7.7-2-10-5C.3 5.3 1 8 3 9.6c-.8 0-1.6-.2-2.2-.6 0 2.4 1.5 4.5 4 5-.8.2-1.5.2-2.3 0 .6 2 2.4 3.5 4.6 3.5-2 1.6-4.7 2.3-7.3 2 2.2 1.4 4.8 2.3 7.5 2.3 9.2 0 14.4-7.8 14-14.7 1-.6 1.8-1.5 2.5-2.4z"/>
  </symbol>
  <symbol id="tm" viewBox="0 0 24 24">
    <path d="M.4 11.6l5.6 2 2 7c.2.3.8.5 1 .2l3.2-2.5c.3-.3.8-.3 1 0l5.7 4c.3.3.8 0 1-.4l4-19.7c0-.5-.4-1-1-.7L.5 10.4c-.5.2-.5 1 0 1.2zm7.3 1l10.8-6.8c.3 0 .5.2.3.4l-9 8.3-.5 1L9 18c0 .3-.5.3-.5 0l-1.2-4c-.2-.5 0-1 .4-1.3z"/>
  </symbol>
  <symbol id="wa" viewBox="0 0 24 24">
    <path d="M0 24l1.7-6.2C.7 16 .2 14 .2 11.8.2 5.4 5.5 0 12.2 0c3 0 6 1.2 8.3 3.5C22.7 5.7 24 8.7 24 12c0 6.5-5.4 11.8-12 11.8-2 0-4-.5-5.6-1.5L0 24zm6.7-3.8c1.6 1 3.2 1.6 5.3 1.6 5.5 0 10-4.4 10-10C22 6.5 17.4 2 12 2 6.7 2 2.3 6.4 2.3 12c0 2 .6 3.8 1.7 5.5l-1 3.7 3.7-1zM18 14.7l-.5-.3-2-1c-.3 0-.5 0-.7.2-.2.3-.8 1-1 1 0 .3-.3.4-.6.2-.3 0-1.3-.5-2.4-1.5-1-.8-1.5-1.7-1.7-2 0-.3 0-.5.3-.6 0-.2.3-.4.4-.6.2 0 .2-.2.3-.4V9L9 7c-.2-.7-.4-.6-.6-.6h-.6c-.2 0-.5 0-.8.4s-1 1-1 2.5 1 2.8 1.2 3c.2.2 2 3.2 5 4.5l1.8.6c.7.3 1.3.2 2 .2.4 0 1.6-.8 2-1.5v-1.3z"/>
  </symbol>
  <symbol id="yt" viewBox="0 0 24 24">
    <path d="M19.6 3.2C16 3 8 3 4.4 3.2.4 3.5 0 5.8 0 12c0 6.2.5 8.5 4.4 8.8 3.6.3 11.6.3 15.2 0 4-.2 4.4-2.6 4.4-8.8 0-6.2-.5-8.5-4.4-8.8zM9 16V8l8 4-8 4z"/>
  </symbol>
  <symbol id="gp" viewBox="0 0 24 24">
    <path d="M7 11v2.4h4c-.2 1-1.2 3-4 3-2.4 0-4.3-2-4.3-4.4 0-2.4 2-4.4 4.3-4.4 1.4 0 2.3.6 2.8 1l2-1.8C10.4 5.8 8.7 5 7 5c-4 0-7 3-7 7s3 7 7 7 6.7-2.8 6.7-6.8V11H7zm0 0l17 2h-3v3h-2v-3h-3v-2h3V8h2v3h3v2z"/>
  </symbol>
</svg>



