<?xml version="1.0" encoding="utf-8"?><svg xmlns="http://www.w3.org/2000/svg" viewBox="0 0 666 120" width="666" height="120"><path fill="#fff" d="M127.6 57l3.4 1.5c9.2 3.8 13.4 11 13.6 20.6.5 20.5-12 35.7-32.8 38.8-8.8 1.3-17.8 1.8-26.8 2-12 .4-23.8 0-35.7 0-3.8 0-6-2.3-6-6 .3-2.4 2.2-4.4 4.8-4.7h3c3.7 0 6.3-2.3 6.2-5.4 0-3-2.6-5.4-6-5.4H24.5c-3 0-5.3-2-5.4-5 0-3 2-5 5-5.4h23c4.5 0 7.2-4.5 4.7-7.8-1-1.3-2.7-2.2-4.5-2.6H44c-3.7 0-6-2.4-6-5.7-.2-3.5 2-6 5.7-6.2h16.6c3.3 0 5.6-2 5.7-5 0-3.2-2-5.6-5.4-5.7H46.4l-6.6.2c-3.8 0-6.2-2.3-6.2-5.6s2.4-5.6 6.2-5.7H52c4.2 0 6.7-2 6.7-5.4S56 33 52 33H29c-2.6 0-4.6-2-5-4.3-.4-2.4.8-4.8 3-5.7 1-.3 2-.4 3.2-.4H56c3-.4 5.4-3 5.3-5.8 0-3-2.4-5.4-5.5-5.4h-10c-3.7 0-6-2.2-6-5.5-.2-3.7 2.2-6 6-6h66.6c7.2 0 14.4.5 21.4 3.2 10.8 4.2 15.8 12 15 23.8-.3 3-.6 6-1.2 9-2.2 9.2-7.7 15.6-16.2 19.5l-4 1.6h.2zM91.4 94v.3l6.8-.3c8.4-.4 12.6-4.8 13-13 0-6-2.4-9.3-8.2-10-5.7-.5-11.5-.7-17.3-1-.6 0-1.7 1-1.8 1.3-1.4 6.4-2.8 12.6-4 19-.4 2.5 1 3.8 3.5 4h7.8v-.3zm-2-48.5c5 0 9.6.2 14.2 0 8.5-.4 12.8-5.3 12.5-13.8 0-4.3-2.2-7-6.3-7.4-3.8-.3-7.8-.3-11.7-.2-2.4 0-4 1.4-4.6 3.7l-4 18v-.3zM20 43.3h2.4c3.3.3 5.5 2.6 5.4 5.8 0 3.2-2.2 5.6-5.4 5.8h-4.8c-3.4 0-5.8-2.6-5.8-5.8 0-3.3 2.4-5.6 5.8-5.8H20zm-14.2 55c-3.5 0-5.7-2-5.8-5 0-3.3 2.3-5.5 6-5.5 3.2 0 5.7 2.4 5.6 5.4 0 3-2.4 5.2-5.8 5.2zm145.5 10.2l7-40c.4-2.6 1.8-5 4-7 2.2-1.8 4.8-3 7.5-3s4.8 1 6.5 3c1.7 2 2.2 4.3 1.8 7l-7 40c-.6 2.7-2 5-4.3 7-2.2 2-4.8 3-7.4 3s-4.8-1-6.5-3c-1.6-2-2.2-4.2-1.7-7h.3zM163.5 49c-1.3-1.7-1.8-3.7-1.4-6 .7-2.3 1.8-4 3.7-6 1.8-1.5 4-2.3 6.2-2.3h4.7c2.4 0 4.2.8 5.4 2.4 1.5 1.8 2 3.7 1.6 6-.5 2.2-1.6 4.2-3.6 5.8-1.8 1.6-4 2.4-6.2 2.4H169c-2.4 0-4.2-.8-5.4-2.4zm23 17c.2-1.7 1-3.3 2.6-4.5 1.6-1.2 3.2-2 5-2h3.5l1.8-7.7c.6-2.4 2-4.3 4-6 2-1.6 4-2.4 6.5-2.4s4.4 1 6 2.6c1.3 1.7 2 4 1.4 6.4l-1.2 7.2h6.2c1.8 0 3.2.7 4.2 2s1.4 2.8 1 4.6c0 1.8-1 3.4-2.5 4.6-1.6 1.2-3.2 2-5 2h-5.8L210 96.2c-.3 1.8-.2 3.4.2 4.6.5 1 1 2 1.6 2.3.6.5 1.4.8 2.4 1.2 2.4.6 4.2 1.4 5.4 2.4 1.2 1 1.4 2 1.2 3.7-.4 1.8-1 3.3-2 4.5-1 1.2-2.4 2-4 2.4-1.8.6-3.3.8-4.6 1H205c-7 0-11.4-1.6-13.6-5-2.3-3.3-2.8-8.4-1.4-15.5l4.6-25h-3c-1.7 0-3-.8-4.2-2-.8-1.3-1.2-3-1-4.7V66zm124 22.7c1.8-9.2 5.8-16.6 12.2-22.2C329 61 337 58 346.7 58s16.4 2.8 20.8 8.5 5.8 13 4.2 22c-1.6 9-5.6 16.4-12.2 22-6.5 5.6-14.5 8.5-24 8.5s-16.5-2.8-21-8.5c-4.2-5.7-5.6-13-4-22v.2zm20-.4c-1 5.2-.8 9.2.6 12 1.5 3 3.7 4.5 7.3 4.5 3.6 0 6.4-1.5 8.7-4.4 2.3-3 4-7 4.8-12 1-5 .7-9-.6-12-1.2-3-3.6-4.4-7.2-4.4s-6.6 1.4-8.8 4.3c-2.4 3-4 6.8-4.8 12zm50 7.8l5-27.5c.4-2.8 1.7-5 4-7s5-3 7.5-3c2.6 0 4.8 1 6.4 3 1.6 2 2.2 4.2 1.7 7L400.8 93c-.7 4-.4 7 1 8.5 1.2 1.6 3 2.4 5 2.4 2.7 0 5-1.2 7-3.4s3.5-5.4 4.3-9.6l4-22.6c.4-2.7 1.7-5 4-7s5-3 7.5-3c2.6 0 4.8 1 6.4 3 1.5 2 2 4.2 1.6 7l-7.2 40.7c-.4 2.5-1.8 4.7-3.8 6.5-2 1.8-4.4 2.7-7 2.7-2.4 0-4.5-1-6-2.7-1.4-1.8-2-4-1.5-6.4l.5-2c-5 7.8-11.6 11.8-19.8 11.8-13.6 0-19-7.5-16.4-22.6h.2zm68.2 12.2l7.2-40.6c.3-2.5 1.7-4.7 3.7-6.5 2-1.7 4.4-2.6 7-2.6 2.4 0 4.4 1 6 2.7 1.4 2 2 4 1.5 6.5l-.5 2.5h.4c1-1.8 2-3 2.7-4.2l2.8-3.6c1.2-1.2 2.4-2.2 3.7-3s2.8-1 4.2-1c3.2 0 5.4 1 6.6 2.8 1.2 1.8 1.5 3.8 1.2 6-.4 2.2-1.6 4-3.4 5.8-1.8 1.7-4 2.6-6.5 2.6-7.5 0-12.2 5-14 15.3l-3 17.4c-.6 3-2 5.2-4.2 7-2.3 2-4.7 3-7.5 3s-4.8-1-6.5-3c-1.5-2-2-4.2-1.6-7l.3.2zm48.2 0l7-40.6c.5-2.4 2-4.6 4-6.4 2-1.8 4.4-2.6 7-2.6 2.5 0 4.5.8 6 2.6 1.3 1.8 2.2 4 1.6 6.4l-.2 1.6c2.2-3.2 5-5.8 8.5-7.8 3.4-2 7.5-3 12-3 14 0 19.3 7.4 16.7 22.5l-4.8 27.5c-.7 2.6-2 5-4.3 7s-4.8 3-7.5 3-4.8-1-6.4-3c-1.6-2-2.2-4.3-1.7-7l4.4-24.7c.7-4 .4-6.6-1-8.2-1.6-1.6-3.4-2.4-5.5-2.4-6.6 0-10.6 4.4-12 13.2l-4 22c-.5 2.6-1.8 5-4.2 7-2.2 2-4.8 3-7.4 3-2.6 0-4.8-1-6.4-3-1.6-2-2.2-4.5-1.7-7.2h-.4zm69-6.8c.5-3 1.6-6 3.3-8.4 1.8-2.4 3.6-4.2 5.8-5.4 2.3-1.2 5-2.4 7.8-3 3-1 5.7-1.4 8.2-1.7 2.4-.3 5.3-.4 8.3-.4h7.2c.7-3.6.6-6.3 0-8-.6-1.5-2.8-2.3-6.2-2.3-3.2 0-6.6 1-10 3.3C587 77.8 584 79 582 79c-2.3 0-4.2-.8-5.6-2.2-1.5-1.4-2-3.3-1.6-5.6.4-2.4 1.6-4.5 3.6-6.3 2-2 4.4-3 7.2-4s5.8-1.7 8.6-2c2.8-.5 5.6-.7 8.4-.7 9 0 15.2 1.8 19.2 5.6 4 3.7 5 9.8 3.6 18.4l-4.8 26.8c-.5 2.6-1.8 4.8-3.8 6.6-2 2-4.4 3-7 3-2.4 0-4.3-.8-5.8-2.3s-2-3.3-2-5.6c-5.2 5.5-11.7 8.3-19.8 8.3-5.5 0-10-1.6-13.2-4.8-3.2-3.2-4.3-7.4-3.4-13h.3zm19.5-1.7c-.3 2 0 3.4 1.2 4.5s2.8 1.6 4.8 1.6c3.4 0 6.4-1.2 8.7-3.5 2.4-2.4 3.8-5.3 4.5-8.8l.2-1h-6.4c-7.8 0-12.2 2.4-13 7.2zm49 8.7L646 43.7c.4-2.6 1.7-5 4-7 2.3-1.8 5-3 7.5-3s5 1 6.6 3c1.7 2 2.3 4.3 1.8 7l-11.4 65c-.5 2.6-1.8 5-4.2 7-2.2 2-4.8 3-7.4 3-2.6 0-4.8-1-6.5-3-1.6-2-2.2-4.3-1.7-7v-.3zm-410.7-11c.8-4 2.6-7.3 5.7-9.8 3-2.6 6.6-3.8 10.5-3.8 4 0 7.4 2.4 10.2 7 2.6 4 6.4 6.3 11.4 6.3 4.2 0 7.7-1 10.2-3.4 2.5-2.4 4.2-6.2 5.2-11.6l11.5-65.5c.6-4 2.6-7.4 6-10.2 3.2-2.8 7-4.2 11-4.2s7 1.5 9.5 4.3c2.3 2.8 3 6.2 2.4 10.2l-11.4 64c-2 11.7-7 21-14.8 28.3-7.8 7.2-18.7 10.8-32.8 10.8-8 0-15-1.2-21-3.6-6-2.4-10.2-5.8-12.5-10.2-1.5-2.7-2-5.4-1.4-8.4h.2z"/></svg>