<?xml version="1.0" encoding="utf-8"?>
<svg version="1.1" xmlns="http://www.w3.org/2000/svg" viewBox="0 0 150 120" width="150" height="120">
  <path fill="#FFFFFF" d="M127.843,57.065l3.38,1.473c9.145,3.731,13.321,10.801,13.519,20.227c0.497,20.129-11.929,35.053-32.606,38.097c-8.748,1.276-17.694,1.767-26.641,1.964c-11.929,0.393-23.659,0-35.488,0c-3.777,0-5.964-2.258-5.964-5.891c0.298-2.357,2.187-4.32,4.772-4.615h2.982c3.678,0,6.263-2.258,6.163-5.302c0-2.946-2.585-5.302-5.964-5.302H25.355c-2.982,0-5.269-1.964-5.368-4.909c0-2.946,1.988-4.909,4.97-5.302h22.864c4.473,0,7.157-4.418,4.672-7.659c-0.994-1.276-2.684-2.16-4.473-2.553h-3.28c-3.678,0-5.964-2.357-5.964-5.597c-0.199-3.437,1.988-5.891,5.666-6.088h16.502c3.28,0,5.567-1.964,5.666-4.909c0-3.142-1.988-5.499-5.368-5.597H47.125l-6.561,0.196c-3.777,0-6.163-2.258-6.163-5.499c0-3.24,2.386-5.499,6.163-5.597h12.128c4.175,0,6.66-1.964,6.66-5.302s-2.684-5.4-6.66-5.4H29.828c-2.585,0-4.573-1.964-4.97-4.222c-0.398-2.357,0.795-4.713,2.982-5.597c0.994-0.295,1.988-0.393,3.181-0.393h25.647c2.982-0.393,5.368-2.946,5.269-5.695c0-2.946-2.386-5.302-5.467-5.302h-9.941c-3.678,0-5.964-2.16-5.964-5.4C40.365,3.258,42.751,1,46.528,1h66.205c7.157,0,14.315,0.491,21.273,3.142c10.736,4.124,15.706,11.783,14.911,23.369c-0.298,2.946-0.596,5.891-1.193,8.837c-2.187,9.033-7.654,15.317-16.104,19.147l-3.976,1.571C127.645,57.065,127.843,57.065,127.843,57.065z M91.858,93.395v0.295l6.76-0.295c8.35-0.393,12.525-4.713,12.923-12.764c0-5.891-2.386-9.131-8.151-9.819c-5.666-0.491-11.432-0.687-17.197-0.982c-0.596,0-1.69,0.982-1.789,1.276c-1.392,6.284-2.783,12.372-3.976,18.656c-0.398,2.455,0.994,3.731,3.479,3.928h7.754v-0.295H91.858z M89.87,45.774c4.97,0,9.543,0.196,14.116,0c8.45-0.393,12.724-5.204,12.426-13.55c0-4.222-2.187-6.873-6.263-7.266c-3.777-0.295-7.754-0.295-11.631-0.196c-2.386,0-3.976,1.375-4.573,3.633l-3.976,17.674v-0.295L89.87,45.774z M20.881,43.614h2.386c3.28,0.295,5.467,2.553,5.368,5.695c0,3.142-2.187,5.499-5.368,5.695h-4.772c-3.38,0-5.766-2.553-5.766-5.695c0-3.24,2.386-5.499,5.766-5.695H20.881z M6.766,97.617c-3.479,0-5.666-1.964-5.766-4.909c0-3.24,2.286-5.4,5.964-5.4c3.181,0,5.666,2.357,5.567,5.302c0,2.946-2.386,5.106-5.766,5.106V97.617z"/>
</svg>
