<?xml version="1.0" encoding="utf-8"?><svg xmlns="http://www.w3.org/2000/svg" viewBox="0 0 260 260" width="260" height="260"><path fill="#24292e" d="M145.2 106.2zm23 42.5c-9.7-1-19.4-1.3-29-1.7-1 0-2.8 1.2-3 2-2.2 10.5-4.5 21-6.3 31.5-1 4.2 1.2 6.4 5.5 6.6 4.2.3 8.6 0 13 0v.4l11.6-.5c14.2-.8 21.3-8 21.8-22 .2-9.7-4-15.2-13.7-16.3zM179 71c-6.5-.7-13.2-.7-19.8-.6-4 0-6.8 2.4-7.7 6.2-2.3 9.8-4.4 19.5-6.6 29.5 8.4 0 16.2.4 24 0 14.2-.6 21.5-8.7 21-23-.4-7-4-11.3-11-12zM260 0v260H0V0h260zM24.7 121.4c2.6 0 5.3.2 8 0 5.4-.3 9.2-4.3 9.2-9.5 0-5.4-3.6-9.3-9.2-9.7h-8c-5.6.2-9.7 4-9.7 9.5 0 5.3 4 9.4 9.7 9.6zm195-86C208 30.7 196 30 184 30H71.7c-6.2 0-10.3 3.8-10 9.4 0 5.6 3.8 9.2 10 9.2 5.8 0 11.3-.2 17 0 5 0 9 4.2 9.2 9 .2 4.8-3.8 9-9 9.6H46c-1.8 0-3.6 0-5.3.6-3.7 1.5-5.7 5.5-5 9.5.7 4 4 7 8.5 7H82c7 0 11.4 3.4 11.4 9s-4.2 9-11.3 9H61.5c-6.3 0-10.4 4-10.4 9.6 0 5.5 4 9.3 10.6 9.3 3.7 0 7.4-.3 11-.3 8 0 16-.2 24 0 5.5 0 9.3 4 9 9.3 0 5-4 8.4-9.5 8.4H84.7c-5.3 0-11 0-16.4.2-6 .3-10 4.5-9.6 10.3 0 5.6 4 9.4 10 9.6 2 0 4.4-.4 6 0 3 .5 6 2 7.6 4.2 4.2 5.5-.3 13-8 13H35.8c-5.2.5-8.7 4.2-8.5 9.2.2 4.7 3.8 8.2 9 8.2H81c6 0 10.3 3.8 10.3 9 0 5.3-4.2 9-10.3 9.3-1.7 0-3.4-.3-5 0-4.3.3-7.6 3.6-8 8-.3 5.7 3.5 9.7 10 9.7 20 0 40 .4 60-.2 15-.3 30-1 45-3.3 34.8-5.2 55.7-30.4 55-64.5-.4-16-7.5-28-23-34.3l-5.6-2.6 6.2-2.6c14.4-6.4 23.6-17 27.2-32.4 1-5 1.6-10 2-15 1.6-19.5-7-32.5-25-39.5z"/></svg>